{
    "asset" : {
        "generator" : "Khronos glTF Blender I/O v1.7.33",
        "version" : "2.0"
    },
    "scene" : 0,
    "scenes" : [
        {
            "name" : "Scene",
            "nodes" : [
                0
            ]
        }
    ],
    "nodes" : [
        {
            "mesh" : 0,
            "name" : "Boeing3",
            "rotation" : [
                0.00032338500022888184,
                0,
                0,
                1
            ]
        }
    ],
    "materials" : [
        {
            "doubleSided" : true,
            "name" : "Material_0",
            "pbrMetallicRoughness" : {
                "metallicFactor" : 0,
                "roughnessFactor" : 0
            }
        }
    ],
    "meshes" : [
        {
            "name" : "Boeing3",
            "primitives" : [
                {
                    "attributes" : {
                        "POSITION" : 0,
                        "NORMAL" : 1,
                        "TEXCOORD_0" : 2
                    },
                    "indices" : 3,
                    "material" : 0
                }
            ]
        }
    ],
    "accessors" : [
        {
            "bufferView" : 0,
            "componentType" : 5126,
            "count" : 52046,
            "max" : [
                14.269787788391113,
                9.414326667785645,
                13.796157836914062
            ],
            "min" : [
                -14.605613708496094,
                -1.656358003616333,
                -19.538646697998047
            ],
            "type" : "VEC3"
        },
        {
            "bufferView" : 1,
            "componentType" : 5126,
            "count" : 52046,
            "type" : "VEC3"
        },
        {
            "bufferView" : 2,
            "componentType" : 5126,
            "count" : 52046,
            "type" : "VEC2"
        },
        {
            "bufferView" : 3,
            "componentType" : 5123,
            "count" : 52461,
            "type" : "SCALAR"
        }
    ],
    "bufferViews" : [
        {
            "buffer" : 0,
            "byteLength" : 624552,
            "byteOffset" : 0
        },
        {
            "buffer" : 0,
            "byteLength" : 624552,
            "byteOffset" : 624552
        },
        {
            "buffer" : 0,
            "byteLength" : 416368,
            "byteOffset" : 1249104
        },
        {
            "buffer" : 0,
            "byteLength" : 104922,
            "byteOffset" : 1665472
        }
    ],
    "buffers" : [
        {
            "byteLength" : 1770396,
            "uri" : "data:application/octet-stream;base64,"
        }
    ]
}
